<?xml version="1.0" encoding="UTF-8" standalone="no"?>
<svg
   xmlns:dc="http://purl.org/dc/elements/1.1/"
   xmlns:cc="http://creativecommons.org/ns#"
   xmlns:rdf="http://www.w3.org/1999/02/22-rdf-syntax-ns#"
   xmlns:svg="http://www.w3.org/2000/svg"
   xmlns="http://www.w3.org/2000/svg"
   xmlns:sodipodi="http://sodipodi.sourceforge.net/DTD/sodipodi-0.dtd"
   xmlns:inkscape="http://www.inkscape.org/namespaces/inkscape"
   version="1.1"
   id="svg2"
   xml:space="preserve"
   width="398.24533"
   height="227.41867"
   viewBox="0 0 398.24533 227.41867"
   sodipodi:docname="DeadlineAlwaysExistsLogo.ai"><metadata
     id="metadata8"><rdf:RDF><cc:Work
         rdf:about=""><dc:format>image/svg+xml</dc:format><dc:type
           rdf:resource="http://purl.org/dc/dcmitype/StillImage" /></cc:Work></rdf:RDF></metadata><defs
     id="defs6"><clipPath
       clipPathUnits="userSpaceOnUse"
       id="clipPath18"><path
         d="M 0,170.564 H 298.684 V 0 H 0 Z"
         id="path16" /></clipPath></defs><sodipodi:namedview
     pagecolor="#ffffff"
     bordercolor="#666666"
     borderopacity="1"
     objecttolerance="10"
     gridtolerance="10"
     guidetolerance="10"
     inkscape:pageopacity="0"
     inkscape:pageshadow="2"
     inkscape:window-width="640"
     inkscape:window-height="480"
     id="namedview4" /><g
     id="g10"
     inkscape:groupmode="layer"
     inkscape:label="DeadlineAlwaysExistsLogo"
     transform="matrix(1.3333333,0,0,-1.3333333,0,227.41867)"><g
       id="g12"><g
         id="g14"
         clip-path="url(#clipPath18)"><g
           id="g20"
           transform="translate(19.3963,117.5293)"><path
             d="M 0,0 C 9.14,0 13.811,4.976 13.811,13.557 13.811,22.951 8.683,27.013 0,27.013 H -9.952 V 0 Z m -15.893,-4.265 v 35.543 h 15.487 c 13.709,0 20.412,-6.043 20.412,-17.569 0,-11.272 -6.55,-17.974 -20.057,-17.974 z"
             style="fill:#000000;fill-opacity:1;fill-rule:nonzero;stroke:none"
             id="path22" /></g><g
           id="g24"
           transform="translate(45.7523,113.2642)"><path
             d="M 0,0 V 35.543 H 29.298 V 30.922 H 5.941 V 20.361 H 26.657 V 15.994 H 5.941 V 4.621 H 29.298 V 0 Z"
             style="fill:#000000;fill-opacity:1;fill-rule:nonzero;stroke:none"
             id="path26" /></g><g
           id="g28"
           transform="translate(97.0379,143.4248)"><path
             d="M 0,0 -8.022,-18.838 H 8.023 Z m 12.644,-30.161 -3.047,7.16 H -9.597 l -2.945,-7.16 h -6.296 L -3.402,5.382 h 6.906 l 15.435,-35.543 z"
             style="fill:#000000;fill-opacity:1;fill-rule:nonzero;stroke:none"
             id="path30" /></g><g
           id="g32"
           transform="translate(136.1898,117.5293)"><path
             d="M 0,0 C 9.14,0 13.811,4.976 13.811,13.557 13.811,22.951 8.683,27.013 0,27.013 H -9.952 V 0 Z m -15.893,-4.265 v 35.543 h 15.487 c 13.709,0 20.412,-6.043 20.412,-17.569 0,-11.272 -6.55,-17.974 -20.057,-17.974 z"
             style="fill:#000000;fill-opacity:1;fill-rule:nonzero;stroke:none"
             id="path34" /></g><g
           id="g36"
           transform="translate(162.5452,113.2642)"><path
             d="M 0,0 V 35.543 H 5.94 V 4.722 h 22.495 l 0,-4.722 z"
             style="fill:#000000;fill-opacity:1;fill-rule:nonzero;stroke:none"
             id="path38" /></g><g
           id="g40"
           transform="translate(195.095,113.2642)"><path
             d="M 0,0 V 4.621 H 10.257 V 30.922 H 0 v 4.621 H 26.506 V 30.922 H 16.198 V 4.621 H 26.506 V 0 Z"
             style="fill:#000000;fill-opacity:1;fill-rule:nonzero;stroke:none"
             id="path42" /></g><g
           id="g44"
           transform="translate(255.3187,113.2642)"><path
             d="M 0,0 -22.291,27.267 V 0 h -5.737 v 35.543 h 6.296 L 0.508,8.226 V 35.543 H 6.296 L 6.296,0 Z"
             style="fill:#000000;fill-opacity:1;fill-rule:nonzero;stroke:none"
             id="path46" /></g><g
           id="g48"
           transform="translate(269.3871,113.2642)"><path
             d="M 0,0 V 35.543 H 29.297 V 30.922 H 5.94 V 20.361 H 26.657 V 15.994 H 5.94 V 4.621 H 29.297 V 0 Z"
             style="fill:#000000;fill-opacity:1;fill-rule:nonzero;stroke:none"
             id="path50" /></g><g
           id="g52"
           transform="translate(18.8377,97.9761)"><path
             d="M 0,0 -8.022,-18.837 H 8.023 Z m 12.644,-30.161 -3.047,7.16 H -9.597 l -2.945,-7.16 h -6.296 L -3.402,5.382 h 6.905 l 15.436,-35.543 z"
             style="fill:#000000;fill-opacity:1;fill-rule:nonzero;stroke:none"
             id="path54" /></g><g
           id="g56"
           transform="translate(42.0965,67.8154)"><path
             d="M 0,0 V 35.543 H 5.941 V 4.722 H 28.435 V 0 Z"
             style="fill:#000000;fill-opacity:1;fill-rule:nonzero;stroke:none"
             id="path58" /></g><g
           id="g60"
           transform="translate(103.3861,67.8154)"><path
             d="M 0,0 -8.784,28.739 -17.518,0 h -6.194 l -11.679,35.543 h 6.043 l 8.936,-28.587 h 0.102 l 8.581,28.587 h 5.89 L 2.742,6.956 h 0.102 l 8.936,28.587 h 6.042 L 6.144,0 Z"
             style="fill:#000000;fill-opacity:1;fill-rule:nonzero;stroke:none"
             id="path62" /></g><g
           id="g64"
           transform="translate(138.3758,97.9761)"><path
             d="M 0,0 -8.023,-18.837 H 8.022 Z m 12.643,-30.161 -3.046,7.16 H -9.597 l -2.945,-7.16 h -6.296 L -3.402,5.382 h 6.905 l 15.436,-35.543 z"
             style="fill:#000000;fill-opacity:1;fill-rule:nonzero;stroke:none"
             id="path66" /></g><g
           id="g68"
           transform="translate(167.5745,67.8154)"><path
             d="m 0,0 v 12.745 l -14.674,22.798 h 6.702 L 2.996,17.721 13.964,35.543 h 6.702 L 5.992,12.745 V 0 Z"
             style="fill:#000000;fill-opacity:1;fill-rule:nonzero;stroke:none"
             id="path70" /></g><g
           id="g72"
           transform="translate(190.7327,75.9902)"><path
             d="M 0,0 C 0,0.305 0,0.508 0.051,0.812 L 4.772,2.031 C 4.722,1.828 4.671,1.574 4.671,1.27 c 0,-4.622 5.18,-5.89 11.323,-5.89 6.601,0 10.663,2.386 10.663,6.448 0,2.894 -1.625,4.976 -7.261,5.484 L 10.46,8.124 c -6.5,0.609 -10.308,3.605 -10.308,9.19 0,7.211 6.449,10.664 16.096,10.664 8.124,0 15.182,-2.793 15.182,-9.089 0,-0.407 0,-0.762 -0.051,-1.219 l -4.874,-1.219 c 0.051,0.356 0.051,0.66 0.051,1.016 0,4.163 -4.672,6.347 -10.308,6.347 -6.854,0 -10.003,-2.438 -10.003,-5.941 0,-3.3 2.082,-4.773 6.956,-5.179 l 8.48,-0.762 C 28.79,11.272 32.75,8.378 32.75,2.336 32.75,-6.042 24.778,-8.784 16.096,-8.784 7.413,-8.784 0,-6.702 0,0"
             style="fill:#000000;fill-opacity:1;fill-rule:nonzero;stroke:none"
             id="path74" /></g><g
           id="g76"
           transform="translate(3.5037,22.3662)"><path
             d="M 0,0 V 35.544 H 29.297 V 30.923 H 5.94 V 20.361 H 26.657 V 15.995 H 5.94 V 4.621 H 29.297 V 0 Z"
             style="fill:#000000;fill-opacity:1;fill-rule:nonzero;stroke:none"
             id="path78" /></g><g
           id="g80"
           transform="translate(66.7723,22.3662)"><path
             d="M 0,0 -11.678,14.472 -23.408,0 h -7.311 l 15.233,18.28 -14.522,17.264 h 7.413 L -11.577,22.24 -0.812,35.544 H 6.5 L -7.819,18.331 7.363,0 Z"
             style="fill:#000000;fill-opacity:1;fill-rule:nonzero;stroke:none"
             id="path82" /></g><g
           id="g84"
           transform="translate(76.1185,22.3662)"><path
             d="M 0,0 V 4.621 H 10.257 V 30.923 H 0 v 4.621 H 26.505 V 30.923 H 16.197 V 4.621 H 26.505 V 0 Z"
             style="fill:#000000;fill-opacity:1;fill-rule:nonzero;stroke:none"
             id="path86" /></g><g
           id="g88"
           transform="translate(106.9422,30.542)"><path
             d="M 0,0 C 0,0.305 0,0.508 0.051,0.812 L 4.773,2.03 C 4.722,1.827 4.671,1.573 4.671,1.269 c 0,-4.621 5.18,-5.89 11.323,-5.89 6.601,0 10.663,2.387 10.663,6.448 0,2.895 -1.625,4.977 -7.261,5.485 L 10.459,8.124 C 3.96,8.733 0.152,11.729 0.152,17.314 c 0,7.21 6.449,10.664 16.096,10.664 8.124,0 15.182,-2.793 15.182,-9.089 0,-0.407 0,-0.762 -0.051,-1.219 l -4.874,-1.219 c 0.051,0.356 0.051,0.66 0.051,1.016 0,4.163 -4.672,6.346 -10.308,6.346 -6.854,0 -10.003,-2.437 -10.003,-5.94 0,-3.301 2.082,-4.773 6.957,-5.18 l 8.479,-0.761 C 28.79,11.271 32.75,8.378 32.75,2.335 32.75,-6.043 24.778,-8.784 16.096,-8.784 7.413,-8.784 0,-6.703 0,0"
             style="fill:#000000;fill-opacity:1;fill-rule:nonzero;stroke:none"
             id="path90" /></g><g
           id="g92"
           transform="translate(154.9788,22.3662)"><path
             d="m 0,0 v 30.821 h -13.607 v 4.723 H 19.6 V 30.821 H 5.992 L 5.992,0 Z"
             style="fill:#000000;fill-opacity:1;fill-rule:nonzero;stroke:none"
             id="path94" /></g><g
           id="g96"
           transform="translate(177.8822,30.542)"><path
             d="M 0,0 C 0,0.305 0,0.508 0.051,0.812 L 4.773,2.03 C 4.723,1.827 4.672,1.573 4.672,1.269 c 0,-4.621 5.179,-5.89 11.323,-5.89 6.601,0 10.662,2.387 10.662,6.448 0,2.895 -1.624,4.977 -7.261,5.485 L 10.46,8.124 c -6.499,0.609 -10.308,3.605 -10.308,9.19 0,7.21 6.45,10.664 16.097,10.664 8.124,0 15.182,-2.793 15.182,-9.089 0,-0.407 0,-0.762 -0.051,-1.219 l -4.875,-1.219 c 0.051,0.356 0.051,0.66 0.051,1.016 0,4.163 -4.671,6.346 -10.307,6.346 -6.855,0 -10.003,-2.437 -10.003,-5.94 0,-3.301 2.081,-4.773 6.956,-5.18 l 8.48,-0.761 C 28.79,11.271 32.751,8.378 32.751,2.335 32.751,-6.043 24.779,-8.784 16.097,-8.784 7.414,-8.784 0,-6.703 0,0"
             style="fill:#000000;fill-opacity:1;fill-rule:nonzero;stroke:none"
             id="path98" /></g><g
           id="g100"
           transform="translate(23.8665,8.5791)"><path
             d="m 0,0 h 2.488 c 7.454,0 16.34,13.139 16.34,75.732 0,62.191 -8.886,75.246 -16.34,75.246 H 0 Z m 2.488,-0.564 h -3.051 v 152.105 h 3.051 c 7.711,0 16.903,-13.152 16.903,-75.809 0,-49.914 -5.845,-76.296 -16.903,-76.296 M -12.77,-8.015 H 3.907 c 14.182,0 22.961,43.471 22.961,83.747 0,40.041 -8.779,83.26 -22.961,83.26 H -12.77 v -7.451 h 5.541 V -0.564 H -12.77 Z M 3.907,-8.579 h -17.24 V 0 h 5.54 v 150.978 h -5.54 v 8.577 h 17.24 c 4.867,0 11.844,-4.756 17.444,-27.413 3.864,-15.638 6.08,-36.198 6.08,-56.41 0,-20.281 -2.207,-40.93 -6.055,-56.654 C 15.782,-3.78 8.789,-8.579 3.907,-8.579"
             style="fill:#ef7b22;fill-opacity:1;fill-rule:nonzero;stroke:none"
             id="path102" /></g><g
           id="g104"
           transform="translate(56.7699,0.5645)"><path
             d="M 0,0 H 32.881 V 53.836 H 31.215 V 45.375 C 31.215,20.222 29.761,7.45 21.812,7.45 h -9.606 v 73.905 h 10.36 V 60.471 h 1.937 v 46.794 H 22.566 V 88.563 h -10.36 v 70.993 h 7.038 c 8.041,0 10.755,-8.957 10.755,-35.495 v -9.919 h 1.666 v 52.864 H 0 v -7.45 H 5.54 L 5.54,7.45 H 0 Z M 33.444,-0.564 H -0.563 v 8.579 h 5.54 v 150.977 h -5.54 v 8.578 h 32.791 v -53.992 h -2.793 v 10.483 c 0,26.117 -2.572,34.931 -10.191,34.931 H 12.77 V 89.126 h 9.233 v 18.702 h 3.063 V 59.906 H 22.003 V 80.791 H 12.77 V 8.015 h 9.042 c 7.472,0 8.839,12.581 8.839,37.36 V 54.4 h 2.793 z"
             style="fill:#ef7b22;fill-opacity:1;fill-rule:nonzero;stroke:none"
             id="path106" /></g><g
           id="g108"
           transform="translate(104.5653,62.248)"><path
             d="M 0,0 H 12.218 L 6.109,64.951 Z M 12.837,-0.564 H -0.619 l 0.029,0.308 6.418,68.244 H 6.39 Z M 9.836,-61.684 H 29.61 v 7.451 h -4.637 l -0.024,0.255 -15.313,161.73 H 7.716 L -7.756,-54.233 h -4.298 v -7.451 H 2.179 v 7.451 h -7.866 l 4.378,46.221 h 14.836 l 4.378,-46.221 H 9.836 Z m 20.337,-0.564 h -20.9 v 8.579 h 8.012 l -4.271,45.093 h -13.81 l -4.271,-45.093 h 7.809 v -8.579 h -15.36 v 8.579 h 4.349 L 7.204,108.316 h 2.945 l 0.024,-0.255 15.313,-161.73 h 4.687 z"
             style="fill:#ef7b22;fill-opacity:1;fill-rule:nonzero;stroke:none"
             id="path110" /></g><g
           id="g112"
           transform="translate(139.3997,0.5645)"><path
             d="m 0,0 h 20.719 v 7.45 h -7.027 v 152.106 h 2.85 c 7.556,0 9.741,-7.962 9.741,-35.495 v -9.919 h 1.598 v 52.864 H -7.162 v -52.864 h 1.599 v 9.919 c 0,27.202 2.276,35.495 9.741,35.495 H 7.027 L 7.027,7.45 H 0 Z M 21.283,-0.564 H -0.563 V 8.015 H 6.463 V 158.992 H 4.178 C -2.855,158.992 -5,150.831 -5,124.061 v -10.483 h -2.725 v 53.992 h 36.17 v -53.992 h -2.726 v 10.483 c 0,29.704 -2.959,34.931 -9.177,34.931 H 14.257 V 8.015 h 7.026 z"
             style="fill:#ef7b22;fill-opacity:1;fill-rule:nonzero;stroke:none"
             id="path114" /></g><g
           id="g116"
           transform="translate(197.099,0.5645)"><path
             d="m 0,0 h 17.61 v 7.45 h -5.54 v 152.106 h 5.54 v 7.45 H 0 v -7.45 h 5.405 v -70.75 h -18.334 v 70.75 h 5.406 v 7.45 h -17.611 v -7.45 h 5.54 V 7.45 h -5.54 V 0 h 17.611 v 7.45 h -5.406 V 81.6 H 5.405 V 7.45 L 0,7.45 Z M 18.175,-0.564 H -0.564 v 8.579 h 5.405 v 73.02 H -12.364 V 8.015 h 5.405 v -8.579 h -18.739 v 8.579 h 5.54 v 150.977 h -5.54 v 8.578 h 18.739 v -8.578 h -5.405 V 89.37 H 4.841 v 69.622 h -5.405 v 8.578 h 18.739 v -8.578 h -5.54 V 8.015 h 5.54 z"
             style="fill:#ef7b22;fill-opacity:1;fill-rule:nonzero;stroke:none"
             id="path118" /></g></g></g></g></svg>
