<?xml version="1.0" encoding="UTF-8" standalone="no"?>
<svg
   xmlns:dc="http://purl.org/dc/elements/1.1/"
   xmlns:cc="http://creativecommons.org/ns#"
   xmlns:rdf="http://www.w3.org/1999/02/22-rdf-syntax-ns#"
   xmlns:svg="http://www.w3.org/2000/svg"
   xmlns="http://www.w3.org/2000/svg"
   xmlns:sodipodi="http://sodipodi.sourceforge.net/DTD/sodipodi-0.dtd"
   xmlns:inkscape="http://www.inkscape.org/namespaces/inkscape"
   version="1.1"
   id="svg2"
   xml:space="preserve"
   width="1440"
   height="1440"
   viewBox="0 0 1440 1440"
   sodipodi:docname="logo-freshy.ai"><metadata
     id="metadata8"><rdf:RDF><cc:Work
         rdf:about=""><dc:format>image/svg+xml</dc:format><dc:type
           rdf:resource="http://purl.org/dc/dcmitype/StillImage" /></cc:Work></rdf:RDF></metadata><defs
     id="defs6"><clipPath
       clipPathUnits="userSpaceOnUse"
       id="clipPath18"><path
         d="M 0,1080 H 1080 V 0 H 0 Z"
         id="path16" /></clipPath></defs><sodipodi:namedview
     pagecolor="#ffffff"
     bordercolor="#666666"
     borderopacity="1"
     objecttolerance="10"
     gridtolerance="10"
     guidetolerance="10"
     inkscape:pageopacity="0"
     inkscape:pageshadow="2"
     inkscape:window-width="640"
     inkscape:window-height="480"
     id="namedview4" /><g
     id="g10"
     inkscape:groupmode="layer"
     inkscape:label="logo-freshy"
     transform="matrix(1.3333333,0,0,-1.3333333,0,1440)"><g
       id="g12"><g
         id="g14"
         clip-path="url(#clipPath18)"><g
           id="g20"
           transform="translate(720.7414,693.6254)"><path
             d="m 0,0 c -1.792,0 -3.087,-0.634 -3.885,-1.901 -0.799,-1.268 -1.199,-3.21 -1.199,-5.828 0,-2.59 0.4,-4.525 1.199,-5.806 0.798,-1.282 2.093,-1.922 3.885,-1.922 1.79,0 3.085,0.64 3.885,1.922 0.799,1.281 1.199,3.216 1.199,5.806 0,2.618 -0.4,4.56 -1.199,5.828 C 3.085,-0.634 1.79,0 0,0"
             style="fill:#ffffff;fill-opacity:1;fill-rule:nonzero;stroke:none"
             id="path22" /></g><g
           id="g24"
           transform="translate(780.9376,687.963)"><path
             d="M 0,0 C 0.51,0.468 0.765,1.171 0.765,2.108 0.765,3.072 0.51,3.788 0,4.257 -0.51,4.725 -1.206,4.96 -2.087,4.96 h -2.811 v -5.663 h 2.811 C -1.206,-0.703 -0.51,-0.469 0,0"
             style="fill:#ffffff;fill-opacity:1;fill-rule:nonzero;stroke:none"
             id="path26" /></g><g
           id="g28"
           transform="translate(777.3281,649.0472)"><path
             d="m 0,0 c -1.101,0 -1.895,-0.36 -2.383,-1.08 -0.487,-0.72 -0.73,-1.85 -0.73,-3.389 0,-0.72 0.106,-1.313 0.318,-1.779 l 4.214,5.93 C 1.038,-0.106 0.565,0 0,0"
             style="fill:#ffffff;fill-opacity:1;fill-rule:nonzero;stroke:none"
             id="path30" /></g><g
           id="g32"
           transform="translate(775.8456,640.3854)"><path
             d="m 0,0 c 0.424,-0.198 0.918,-0.297 1.482,-0.297 1.102,0 1.896,0.364 2.383,1.091 0.487,0.727 0.731,1.86 0.731,3.399 0,0.692 -0.106,1.306 -0.318,1.843 z"
             style="fill:#ffffff;fill-opacity:1;fill-rule:nonzero;stroke:none"
             id="path34" /></g><g
           id="g36"
           transform="translate(873.9905,698.1716)"><path
             d="m 0,0 -9.63,-16.491 v -7.48 c 0,-0.8 -0.185,-1.392 -0.557,-1.777 -0.372,-0.387 -1.027,-0.579 -1.964,-0.579 h -4.918 c -0.909,0 -1.55,0.192 -1.922,0.579 -0.372,0.385 -0.558,0.977 -0.558,1.777 v 7.48 L -29.179,0 c -0.165,0.303 -0.248,0.592 -0.248,0.868 0,0.606 0.316,0.909 0.951,0.909 h 7.77 c 0.413,0 0.73,-0.09 0.95,-0.269 0.221,-0.179 0.441,-0.461 0.661,-0.847 l 4.506,-8.1 4.505,8.1 c 0.22,0.386 0.44,0.668 0.661,0.847 0.22,0.179 0.537,0.269 0.95,0.269 h 7.771 c 0.633,0 0.95,-0.303 0.95,-0.909 C 0.248,0.592 0.165,0.303 0,0 m -29.468,-2.893 c 0,-0.827 -0.159,-1.426 -0.475,-1.798 -0.317,-0.372 -0.916,-0.558 -1.798,-0.558 h -9.671 v -3.554 h 5.951 c 0.882,0 1.481,-0.186 1.798,-0.558 0.317,-0.372 0.476,-0.972 0.476,-1.798 v -2.232 c 0,-0.826 -0.159,-1.426 -0.476,-1.798 -0.317,-0.372 -0.916,-0.558 -1.798,-0.558 h -5.951 v -3.554 h 9.63 c 0.882,0 1.481,-0.186 1.798,-0.558 0.316,-0.372 0.475,-0.971 0.475,-1.798 v -2.314 c 0,-0.827 -0.159,-1.426 -0.475,-1.798 -0.317,-0.372 -0.916,-0.558 -1.798,-0.558 h -17.069 c -0.909,0 -1.55,0.192 -1.922,0.579 -0.372,0.385 -0.558,0.977 -0.558,1.777 v 23.392 c 0,0.799 0.186,1.391 0.558,1.777 0.372,0.386 1.013,0.579 1.922,0.579 h 17.11 c 0.882,0 1.481,-0.186 1.798,-0.558 0.316,-0.372 0.475,-0.971 0.475,-1.798 z M -52.1,33.655 v 9.502 h -8.542 v -9.502 c 0,-0.928 -0.216,-1.616 -0.648,-2.064 -0.432,-0.448 -1.192,-0.672 -2.28,-0.672 h -5.711 c -1.055,0 -1.8,0.224 -2.232,0.672 -0.431,0.448 -0.647,1.136 -0.647,2.064 v 27.164 c 0,0.927 0.216,1.615 0.647,2.063 0.432,0.448 1.177,0.672 2.232,0.672 h 5.711 c 1.088,0 1.848,-0.216 2.28,-0.648 0.432,-0.432 0.648,-1.128 0.648,-2.087 v -9.503 h 8.542 v 9.503 c 0,0.927 0.216,1.615 0.648,2.063 0.432,0.448 1.176,0.672 2.232,0.672 h 5.711 c 1.087,0 1.848,-0.216 2.28,-0.648 0.432,-0.432 0.647,-1.128 0.647,-2.087 V 33.655 c 0,-0.928 -0.215,-1.616 -0.647,-2.064 -0.432,-0.448 -1.193,-0.672 -2.28,-0.672 h -5.711 c -1.056,0 -1.8,0.224 -2.232,0.672 -0.432,0.448 -0.648,1.136 -0.648,2.064 m -2.124,-57.668 c 0,-0.799 -0.186,-1.384 -0.558,-1.756 -0.372,-0.372 -1.027,-0.558 -1.963,-0.558 h -3.927 c -0.578,0 -1.026,0.075 -1.343,0.227 -0.317,0.151 -0.627,0.448 -0.93,0.889 l -7.48,11.117 v -9.919 c 0,-0.799 -0.186,-1.384 -0.558,-1.756 -0.372,-0.372 -1.027,-0.558 -1.964,-0.558 h -4.918 c -0.909,0 -1.55,0.192 -1.922,0.579 -0.371,0.385 -0.557,0.977 -0.557,1.777 v 23.434 c 0,0.798 0.186,1.384 0.557,1.756 0.372,0.372 1.027,0.558 1.963,0.558 h 3.927 c 0.578,0 1.026,-0.076 1.343,-0.227 0.316,-0.152 0.627,-0.448 0.93,-0.889 l 7.481,-11.117 v 9.877 c 0,0.799 0.186,1.391 0.558,1.777 0.371,0.386 1.012,0.579 1.921,0.579 h 4.919 c 0.936,0 1.591,-0.186 1.963,-0.558 0.372,-0.372 0.558,-0.971 0.558,-1.798 z m -22.478,-34.673 c -0.572,-0.784 -1.366,-1.384 -2.382,-1.801 -1.017,-0.416 -2.175,-0.624 -3.474,-0.624 -1.087,0 -2.125,0.127 -3.113,0.381 -0.988,0.254 -1.8,0.6 -2.435,1.038 -0.156,0.098 -0.233,0.225 -0.233,0.381 0,0.099 0.049,0.247 0.148,0.445 l 0.911,1.567 c 0.098,0.183 0.211,0.275 0.338,0.275 0.113,0 0.262,-0.057 0.445,-0.169 1.031,-0.593 2.259,-0.89 3.685,-0.89 0.847,0 1.507,0.184 1.98,0.551 0.473,0.367 0.71,0.911 0.71,1.631 0,0.79 -0.198,1.344 -0.593,1.662 -0.396,0.318 -0.967,0.476 -1.716,0.476 -0.452,0 -0.896,-0.039 -1.334,-0.116 -0.438,-0.078 -0.805,-0.18 -1.101,-0.307 -0.353,-0.127 -0.728,-0.191 -1.123,-0.191 -0.55,0 -1.002,0.141 -1.355,0.424 -0.353,0.282 -0.515,0.691 -0.487,1.228 l 0.339,5.379 c 0.028,0.325 0.116,0.565 0.265,0.721 0.148,0.155 0.42,0.233 0.815,0.233 h 8.81 c 0.395,0 0.667,-0.082 0.815,-0.244 0.149,-0.162 0.223,-0.434 0.223,-0.815 v -0.996 c 0,-0.381 -0.074,-0.653 -0.223,-0.815 -0.148,-0.163 -0.42,-0.244 -0.815,-0.244 h -6.417 l -0.106,-1.715 c 0.282,0.07 0.657,0.13 1.123,0.18 0.465,0.049 0.882,0.074 1.249,0.074 1.878,0 3.332,-0.381 4.363,-1.144 1.03,-0.762 1.546,-2.026 1.546,-3.79 0,-1.074 -0.286,-2.002 -0.858,-2.785 m -14.433,-0.498 c -1.228,-1.285 -3.071,-1.927 -5.527,-1.927 -2.457,0 -4.3,0.642 -5.528,1.927 -1.228,1.285 -1.842,3.148 -1.842,5.591 0,2.442 0.614,4.306 1.842,5.591 1.228,1.285 3.071,1.927 5.528,1.927 2.456,0 4.299,-0.642 5.527,-1.927 1.228,-1.285 1.843,-3.149 1.843,-5.591 0,-2.443 -0.615,-4.306 -1.843,-5.591 m -14.937,33.436 c -0.372,0.385 -0.558,0.977 -0.558,1.777 v 23.392 c 0,0.799 0.186,1.391 0.558,1.777 0.372,0.386 1.013,0.579 1.922,0.579 h 9.878 c 4.133,0 7.142,-0.82 9.031,-2.459 1.886,-1.64 2.83,-4.112 2.83,-7.419 0,-1.983 -0.337,-3.657 -1.012,-5.021 -0.676,-1.364 -1.715,-2.432 -3.121,-3.203 l 3.844,-8.225 c 0.11,-0.221 0.165,-0.469 0.165,-0.744 0,-0.303 -0.103,-0.551 -0.309,-0.744 -0.207,-0.193 -0.476,-0.289 -0.806,-0.289 h -6.985 c -0.442,0 -0.792,0.062 -1.054,0.186 -0.262,0.124 -0.449,0.337 -0.558,0.64 l -3.059,7.688 h -1.405 v -6.158 c 0,-0.8 -0.186,-1.392 -0.557,-1.777 -0.372,-0.387 -1.028,-0.579 -1.964,-0.579 h -4.918 c -0.909,0 -1.55,0.192 -1.922,0.579 m 1.51,-34.008 c 0,-0.381 -0.074,-0.65 -0.222,-0.805 -0.148,-0.155 -0.42,-0.233 -0.816,-0.233 h -7.475 c -0.396,0 -0.667,0.078 -0.816,0.233 -0.148,0.155 -0.222,0.424 -0.222,0.805 v 0.995 c 0,0.367 0.074,0.632 0.222,0.795 0.149,0.162 0.42,0.243 0.816,0.243 h 1.588 v 6.82 l -1.186,-0.742 c -0.071,-0.056 -0.162,-0.084 -0.275,-0.084 -0.127,0 -0.233,0.063 -0.318,0.19 l -1.292,1.991 c -0.057,0.071 -0.085,0.155 -0.085,0.254 0,0.141 0.078,0.254 0.233,0.339 l 3.834,2.308 c 0.155,0.099 0.296,0.166 0.423,0.202 0.127,0.035 0.318,0.053 0.572,0.053 h 1.271 c 0.409,0 0.698,-0.089 0.868,-0.265 0.169,-0.177 0.254,-0.449 0.254,-0.816 v -10.25 h 1.588 c 0.396,0 0.668,-0.081 0.816,-0.243 0.148,-0.163 0.222,-0.428 0.222,-0.795 z m -18.31,32.809 c -2.7,0 -5.07,0.434 -7.108,1.302 -2.04,0.868 -3.624,2.121 -4.753,3.761 -1.13,1.639 -1.695,3.588 -1.695,5.848 v 15.457 c 0,0.799 0.186,1.391 0.558,1.777 0.372,0.386 1.012,0.579 1.922,0.579 h 4.918 c 0.936,0 1.591,-0.186 1.963,-0.558 0.372,-0.372 0.558,-0.971 0.558,-1.798 V -16.16 c 0,-1.296 0.323,-2.26 0.971,-2.893 0.647,-0.634 1.536,-0.951 2.666,-0.951 1.13,0 2.018,0.317 2.666,0.951 0.647,0.633 0.971,1.597 0.971,2.893 v 15.581 c 0,0.799 0.186,1.391 0.558,1.777 0.372,0.386 1.013,0.579 1.922,0.579 h 4.918 c 0.936,0 1.592,-0.186 1.964,-0.558 0.372,-0.372 0.557,-0.971 0.557,-1.798 v -15.457 c 0,-2.26 -0.565,-4.209 -1.694,-5.848 -1.13,-1.64 -2.715,-2.893 -4.753,-3.761 -2.04,-0.868 -4.409,-1.302 -7.109,-1.302 m -19.218,3.823 c -2.536,-2.549 -6.255,-3.823 -11.159,-3.823 -4.905,0 -8.625,1.274 -11.16,3.823 -2.535,2.548 -3.802,6.164 -3.802,10.849 0,4.684 1.267,8.3 3.802,10.849 2.535,2.548 6.255,3.823 11.16,3.823 4.904,0 8.623,-1.275 11.159,-3.823 2.535,-2.549 3.802,-6.165 3.802,-10.849 0,-4.685 -1.267,-8.301 -3.802,-10.849 m -33.204,66.281 v -9.502 c 0,-0.928 -0.216,-1.616 -0.648,-2.064 -0.432,-0.448 -1.192,-0.672 -2.279,-0.672 h -5.711 c -1.056,0 -1.8,0.224 -2.232,0.672 -0.432,0.448 -0.648,1.136 -0.648,2.064 v 27.163 c 0,0.928 0.216,1.616 0.648,2.064 0.432,0.448 1.176,0.672 2.232,0.672 h 19.869 c 1.023,0 1.719,-0.216 2.087,-0.648 0.367,-0.432 0.552,-1.128 0.552,-2.087 v -2.688 c 0,-0.96 -0.185,-1.656 -0.552,-2.088 -0.368,-0.431 -1.064,-0.647 -2.087,-0.647 h -11.231 v -4.08 h 6.911 c 1.024,0 1.72,-0.216 2.088,-0.648 0.367,-0.432 0.552,-1.127 0.552,-2.088 v -2.687 c 0,-0.96 -0.185,-1.656 -0.552,-2.088 -0.368,-0.432 -1.064,-0.648 -2.088,-0.648 z m 5.224,-60.557 c 0,-2.921 -0.91,-5.242 -2.728,-6.964 -1.818,-1.722 -4.437,-2.583 -7.853,-2.583 -3.912,0 -7.109,0.909 -9.588,2.728 -0.331,0.248 -0.496,0.523 -0.496,0.826 0,0.248 0.124,0.592 0.372,1.033 l 2.067,3.555 c 0.275,0.44 0.564,0.661 0.867,0.661 0.193,0 0.469,-0.124 0.827,-0.372 1.322,-0.992 2.589,-1.488 3.802,-1.488 1.873,0 2.811,0.895 2.811,2.687 v 16.738 c 0,0.799 0.186,1.391 0.558,1.777 0.371,0.386 1.012,0.579 1.921,0.579 h 4.919 c 0.936,0 1.591,-0.186 1.963,-0.558 0.372,-0.372 0.558,-0.971 0.558,-1.798 z m 10.326,78.219 c 0,0.927 0.216,1.615 0.647,2.063 0.432,0.448 1.177,0.672 2.232,0.672 h 11.47 c 4.799,0 8.295,-0.952 10.487,-2.855 2.19,-1.904 3.287,-4.776 3.287,-8.615 0,-2.304 -0.392,-4.247 -1.176,-5.831 -0.784,-1.584 -1.991,-2.824 -3.624,-3.72 l 4.464,-9.55 c 0.127,-0.256 0.192,-0.544 0.192,-0.864 0,-0.352 -0.12,-0.64 -0.36,-0.864 -0.24,-0.224 -0.552,-0.336 -0.936,-0.336 h -8.11 c -0.512,0 -0.92,0.073 -1.224,0.216 -0.304,0.144 -0.52,0.392 -0.648,0.744 l -3.552,8.927 h -1.631 v -7.151 c 0,-0.928 -0.216,-1.616 -0.648,-2.064 -0.432,-0.448 -1.192,-0.672 -2.28,-0.672 h -5.711 c -1.055,0 -1.8,0.224 -2.232,0.672 -0.431,0.448 -0.647,1.136 -0.647,2.064 z m 31.17,2.063 c 0.432,0.448 1.176,0.672 2.232,0.672 h 19.868 c 1.024,0 1.72,-0.216 2.088,-0.648 0.368,-0.432 0.552,-1.128 0.552,-2.087 v -2.688 c 0,-0.96 -0.184,-1.656 -0.552,-2.088 -0.368,-0.431 -1.064,-0.647 -2.088,-0.647 h -11.23 v -4.128 h 6.911 c 1.023,0 1.719,-0.216 2.088,-0.648 0.367,-0.432 0.552,-1.128 0.552,-2.087 v -2.592 c 0,-0.96 -0.185,-1.656 -0.552,-2.088 -0.369,-0.432 -1.065,-0.648 -2.088,-0.648 h -6.911 v -4.127 h 11.182 c 1.024,0 1.72,-0.216 2.088,-0.648 0.368,-0.432 0.552,-1.128 0.552,-2.088 v -2.687 c 0,-0.96 -0.184,-1.656 -0.552,-2.088 -0.368,-0.432 -1.064,-0.648 -2.088,-0.648 h -19.82 c -1.056,0 -1.8,0.224 -2.232,0.672 -0.432,0.448 -0.648,1.136 -0.648,2.064 v 27.164 c 0,0.927 0.216,1.615 0.648,2.063 m 11.863,-42.968 c -0.505,0 -0.848,0.107 -1.029,0.32 -0.182,0.213 -0.273,0.556 -0.273,1.029 v 1.325 c 0,0.473 0.091,0.816 0.273,1.029 0.181,0.213 0.524,0.319 1.029,0.319 h 12.49 c 0.505,0 0.848,-0.106 1.029,-0.319 0.182,-0.213 0.272,-0.556 0.272,-1.029 v -1.325 c 0,-0.473 -0.09,-0.816 -0.272,-1.029 -0.181,-0.213 -0.524,-0.32 -1.029,-0.32 h -3.406 V 9.198 c 0,-0.458 -0.107,-0.797 -0.32,-1.017 -0.213,-0.221 -0.587,-0.332 -1.124,-0.332 h -2.815 c -0.52,0 -0.887,0.111 -1.099,0.332 -0.213,0.22 -0.32,0.559 -0.32,1.017 v 10.716 z m 9.364,74.331 c 1.349,1.27 3.272,1.906 5.771,1.906 1.087,0 2.069,-0.11 2.944,-0.329 0.875,-0.219 1.61,-0.526 2.203,-0.921 0.155,-0.099 0.233,-0.226 0.233,-0.381 0,-0.099 -0.05,-0.247 -0.149,-0.445 l -0.91,-1.546 c -0.085,-0.183 -0.198,-0.275 -0.339,-0.275 -0.085,0 -0.226,0.049 -0.424,0.148 -0.847,0.466 -1.842,0.699 -2.986,0.699 -1.313,0 -2.326,-0.378 -3.039,-1.133 -0.713,-0.756 -1.069,-1.867 -1.069,-3.336 0,-1.468 0.381,-2.583 1.143,-3.346 0.763,-0.762 1.8,-1.143 3.113,-1.143 1.158,0 2.182,0.233 3.071,0.698 0.198,0.099 0.339,0.149 0.424,0.149 0.127,0 0.24,-0.085 0.339,-0.254 l 0.953,-1.631 c 0.084,-0.141 0.127,-0.269 0.127,-0.381 0,-0.127 -0.085,-0.254 -0.254,-0.382 -1.186,-0.818 -2.937,-1.228 -5.253,-1.228 -2.513,0 -4.461,0.639 -5.845,1.917 -1.383,1.277 -2.075,3.145 -2.075,5.601 0,2.471 0.674,4.342 2.022,5.613 M -96.533,13.882 V 9.198 c 0,-0.458 -0.106,-0.797 -0.319,-1.017 -0.213,-0.221 -0.588,-0.332 -1.124,-0.332 h -2.815 c -0.52,0 -0.887,0.111 -1.1,0.332 -0.213,0.22 -0.319,0.559 -0.319,1.017 v 13.39 c 0,0.457 0.106,0.796 0.319,1.017 0.213,0.221 0.58,0.331 1.1,0.331 h 2.815 c 0.536,0 0.911,-0.106 1.124,-0.319 0.213,-0.213 0.319,-0.556 0.319,-1.029 v -4.684 h 4.211 v 4.684 c 0,0.457 0.107,0.796 0.32,1.017 0.213,0.221 0.579,0.331 1.1,0.331 h 2.815 c 0.536,0 0.911,-0.106 1.124,-0.319 0.213,-0.213 0.319,-0.556 0.319,-1.029 V 9.198 c 0,-0.458 -0.106,-0.797 -0.319,-1.017 -0.213,-0.221 -0.588,-0.332 -1.124,-0.332 h -2.815 c -0.521,0 -0.887,0.111 -1.1,0.332 -0.213,0.22 -0.32,0.559 -0.32,1.017 v 4.684 z m 8.248,50.392 c 2.751,0 5.095,-0.24 7.031,-0.72 1.935,-0.48 3.623,-1.232 5.063,-2.256 0.639,-0.448 0.96,-0.88 0.96,-1.295 0,-0.288 -0.113,-0.593 -0.336,-0.912 l -2.784,-4.367 c -0.288,-0.449 -0.576,-0.672 -0.863,-0.672 -0.192,0 -0.497,0.127 -0.912,0.383 -0.769,0.512 -1.681,0.937 -2.736,1.272 -1.056,0.336 -2.192,0.504 -3.407,0.504 -1.121,0 -1.968,-0.16 -2.544,-0.479 -0.576,-0.321 -0.864,-0.833 -0.864,-1.536 0,-0.576 0.2,-1.056 0.6,-1.44 0.4,-0.384 0.904,-0.712 1.512,-0.984 0.607,-0.272 1.663,-0.712 3.167,-1.32 2.399,-0.96 4.287,-1.88 5.663,-2.759 1.375,-0.881 2.416,-1.936 3.119,-3.168 0.704,-1.232 1.057,-2.792 1.057,-4.679 0,-2.88 -1.08,-5.207 -3.24,-6.983 -2.16,-1.776 -5.383,-2.663 -9.67,-2.663 -2.912,0 -5.615,0.304 -8.111,0.912 -2.496,0.607 -4.512,1.455 -6.047,2.543 -0.64,0.447 -0.96,0.879 -0.96,1.296 0,0.288 0.112,0.591 0.336,0.912 l 2.783,4.367 c 0.288,0.415 0.577,0.624 0.864,0.624 0.256,0 0.56,-0.113 0.912,-0.336 1.152,-0.704 2.472,-1.256 3.959,-1.656 1.489,-0.4 2.936,-0.6 4.344,-0.6 1.183,0 2.04,0.16 2.567,0.48 0.529,0.319 0.793,0.816 0.793,1.488 0,0.735 -0.353,1.327 -1.057,1.776 -0.703,0.447 -1.919,1.008 -3.647,1.679 -3.232,1.248 -5.775,2.664 -7.631,4.248 -1.856,1.583 -2.783,3.687 -2.783,6.311 0,3.327 1.159,5.831 3.479,7.51 2.32,1.68 5.448,2.52 9.383,2.52 m -6.387,30.479 c 0,0.367 0.085,0.639 0.254,0.815 0.17,0.177 0.452,0.265 0.848,0.265 h 2.054 c 0.409,0 0.699,-0.088 0.868,-0.265 0.169,-0.176 0.254,-0.448 0.254,-0.815 v -8.175 c 0,-0.791 0.223,-1.394 0.667,-1.811 0.445,-0.416 1.056,-0.624 1.832,-0.624 0.777,0 1.384,0.208 1.822,0.624 0.437,0.417 0.656,1.02 0.656,1.811 v 8.175 c 0,0.367 0.085,0.639 0.254,0.815 0.17,0.177 0.452,0.265 0.847,0.265 h 2.055 c 0.409,0 0.702,-0.088 0.879,-0.265 0.176,-0.176 0.264,-0.448 0.264,-0.815 v -8.111 c 0,-1.144 -0.286,-2.132 -0.858,-2.965 -0.571,-0.834 -1.365,-1.469 -2.382,-1.906 -1.017,-0.438 -2.196,-0.657 -3.537,-0.657 -1.341,0 -2.524,0.219 -3.547,0.657 -1.024,0.437 -1.818,1.072 -2.383,1.906 -0.565,0.833 -0.847,1.821 -0.847,2.965 z m 21.926,-71.136 c 0.181,-0.213 0.272,-0.556 0.272,-1.029 v -1.325 c 0,-0.473 -0.091,-0.816 -0.272,-1.029 -0.181,-0.213 -0.524,-0.32 -1.029,-0.32 h -5.536 V 17.88 h 3.407 c 0.504,0 0.847,-0.107 1.029,-0.32 0.181,-0.212 0.272,-0.555 0.272,-1.029 v -1.277 c 0,-0.473 -0.091,-0.816 -0.272,-1.029 -0.182,-0.213 -0.525,-0.319 -1.029,-0.319 h -3.407 v -2.035 h 5.512 c 0.505,0 0.848,-0.106 1.029,-0.319 0.181,-0.213 0.272,-0.556 0.272,-1.029 V 9.198 c 0,-0.473 -0.091,-0.816 -0.272,-1.029 -0.181,-0.213 -0.524,-0.32 -1.029,-0.32 h -9.77 c -0.52,0 -0.887,0.111 -1.1,0.332 -0.213,0.22 -0.319,0.559 -0.319,1.017 v 13.39 c 0,0.457 0.106,0.796 0.319,1.017 0.213,0.221 0.58,0.331 1.1,0.331 h 9.794 c 0.505,0 0.848,-0.106 1.029,-0.319 m 35.716,39.937 h 9.022 c 0.48,0 0.848,-0.104 1.104,-0.312 0.256,-0.208 0.511,-0.536 0.768,-0.984 l 5.231,-9.406 5.231,9.406 c 0.256,0.448 0.512,0.776 0.769,0.984 0.255,0.208 0.623,0.312 1.103,0.312 h 9.023 c 0.735,0 1.104,-0.352 1.104,-1.056 0,-0.32 -0.097,-0.656 -0.289,-1.008 L -15.146,42.342 v -8.687 c 0,-0.928 -0.215,-1.616 -0.647,-2.064 -0.432,-0.448 -1.193,-0.672 -2.28,-0.672 h -5.711 c -1.056,0 -1.8,0.224 -2.232,0.672 -0.432,0.448 -0.648,1.136 -0.648,2.064 v 8.687 L -37.846,61.49 c -0.192,0.352 -0.288,0.688 -0.288,1.008 0,0.704 0.367,1.056 1.104,1.056 M 36.494,18.663 16.933,38.224 28.719,63.251 -2.091,77.76 v 34.056 h -29.437 l -10.673,27.434 -30.16,-11.732 -22.882,22.883 -19.561,-19.561 -25.027,11.786 -14.509,-30.81 h -34.056 V 82.378 l -27.434,-10.672 11.732,-30.16 -22.883,-22.883 19.561,-19.56 -11.786,-25.027 30.81,-14.509 v -34.056 h 29.438 l 10.672,-27.435 30.16,11.733 22.883,-22.883 19.56,19.561 25.027,-11.786 14.509,30.81 h 34.056 v 29.438 l 27.435,10.672 -11.733,30.16 z"
             style="fill:#ffffff;fill-opacity:1;fill-rule:nonzero;stroke:none"
             id="path38" /></g><g
           id="g40"
           transform="translate(730.0112,747.8078)"><path
             d="M 0,0 C 0.592,0.544 0.888,1.36 0.888,2.448 0.888,3.567 0.592,4.399 0,4.944 -0.592,5.487 -1.399,5.759 -2.423,5.759 h -3.263 v -6.575 h 3.263 c 1.024,0 1.831,0.272 2.423,0.816"
             style="fill:#ffffff;fill-opacity:1;fill-rule:nonzero;stroke:none"
             id="path42" /></g><g
           id="g44"
           transform="translate(204.2143,628.2024)"><path
             d="m 0,0 c -23.135,20.496 -34.699,50.898 -34.699,91.207 0,40.539 11.166,70.994 33.495,91.382 22.329,20.382 54.22,30.573 95.675,30.573 18.775,0 35.497,-1.836 50.155,-5.494 14.654,-3.667 26.91,-8.822 36.759,-15.46 2.747,-2.062 4.122,-4.354 4.122,-6.872 0,-2.06 -1.03,-4.926 -3.092,-8.587 l -17.177,-29.544 c -1.836,-3.211 -4.009,-4.81 -6.527,-4.81 -1.604,0 -4.241,0.912 -7.9,2.748 -6.417,3.205 -13.115,5.723 -20.098,7.557 -6.988,1.83 -15.175,2.75 -24.563,2.75 -19.012,0 -33.552,-5.497 -43.628,-16.489 -10.08,-10.995 -15.117,-26.916 -15.117,-47.754 0,-20.611 5.498,-36.471 16.492,-47.579 10.992,-11.11 25.991,-16.66 45.001,-16.66 16.492,0 31.606,3.434 45.348,10.307 3.661,1.83 6.295,2.747 7.9,2.747 2.518,0 4.693,-1.604 6.527,-4.81 L 185.85,5.669 c 2.062,-3.667 3.092,-6.528 3.092,-8.587 0,-2.524 -1.375,-4.81 -4.122,-6.873 -9.849,-6.643 -22.216,-11.798 -37.101,-15.459 -14.891,-3.659 -31.725,-5.495 -50.501,-5.495 C 55.534,-30.745 23.13,-20.498 0,0"
             style="fill:#ffffff;fill-opacity:1;fill-rule:nonzero;stroke:none"
             id="path46" /></g><g
           id="g48"
           transform="translate(462.2058,608.2783)"><path
             d="M 0,0 C -16.95,7.215 -30.118,17.632 -39.506,31.261 -48.899,44.884 -53.59,61.089 -53.59,79.87 v 128.483 c 0,6.64 1.543,11.563 4.636,14.771 3.092,3.206 8.416,4.81 15.975,4.81 H 7.902 c 7.781,0 13.226,-1.546 16.316,-4.638 3.092,-3.09 4.638,-8.074 4.638,-14.943 V 78.84 c 0,-10.768 2.69,-18.781 8.074,-24.046 5.378,-5.271 12.764,-7.902 22.157,-7.902 9.388,0 16.774,2.631 22.158,7.902 5.379,5.265 8.074,13.278 8.074,24.046 v 129.513 c 0,6.64 1.546,11.563 4.638,14.771 3.09,3.206 8.416,4.81 15.973,4.81 h 40.881 c 7.784,0 13.226,-1.546 16.318,-4.638 3.093,-3.09 4.636,-8.074 4.636,-14.943 V 79.87 c 0,-18.781 -4.696,-34.986 -14.084,-48.609 C 148.288,17.632 135.12,7.215 118.175,0 101.225,-7.215 81.53,-10.821 59.087,-10.821 36.64,-10.821 16.945,-7.215 0,0"
             style="fill:#ffffff;fill-opacity:1;fill-rule:nonzero;stroke:none"
             id="path50" /></g><g
           id="g52"
           transform="translate(305.5387,562.5947)"><path
             d="m 0,0 h -30.273 c -5.806,0 -10.231,-0.415 -13.271,-1.244 -3.046,-0.83 -6.221,-2.217 -9.539,-4.148 l -78.379,-47.276 c -3.046,-1.659 -4.561,-3.875 -4.561,-6.635 0,-1.659 0.55,-3.182 1.658,-4.562 l 31.518,-48.106 c 1.658,-2.489 3.732,-3.733 6.221,-3.733 1.931,0 3.589,0.551 4.976,1.659 l 17.002,10.782 v -108.238 h -26.126 c -8.851,0 -14.864,-1.866 -18.04,-5.599 -3.181,-3.732 -4.769,-9.746 -4.769,-18.04 v -23.223 c 0,-8.295 1.588,-14.308 4.769,-18.04 3.176,-3.733 9.189,-5.599 18.04,-5.599 h 130.29 c 8.845,0 14.859,1.866 18.04,5.599 3.175,3.732 4.769,9.745 4.769,18.04 v 23.223 c 0,8.294 -1.594,14.308 -4.769,18.04 -3.181,3.733 -9.195,5.599 -18.04,5.599 h -4.633 v 187.862 c 0,8.016 -1.867,13.958 -5.599,17.833 C 15.553,-1.938 9.124,0 0,0 m 0,-8.311 c 8.834,0 12.127,-2.046 13.299,-3.26 2.705,-2.809 3.273,-8.113 3.273,-12.068 v -187.862 -8.311 h 8.311 4.633 c 8.752,0 11.179,-2.05 11.709,-2.672 1.042,-1.225 2.79,-4.498 2.79,-12.656 v -23.223 c 0,-8.158 -1.748,-11.431 -2.784,-12.649 -0.536,-0.629 -2.963,-2.679 -11.715,-2.679 h -130.29 c -8.755,0 -11.177,2.046 -11.715,2.679 -1.039,1.219 -2.783,4.485 -2.783,12.649 v 23.223 c 0,8.164 1.744,11.43 2.788,12.655 0.533,0.627 2.955,2.673 11.71,2.673 h 26.126 8.311 v 8.311 108.238 15.112 l -12.761,-8.093 -17.003,-10.783 -0.036,-0.022 -30.985,47.294 78.275,47.213 c 2.675,1.552 5.193,2.655 7.492,3.28 1.589,0.434 4.802,0.951 11.082,0.951 H 0"
             style="fill:#ffffff;fill-opacity:1;fill-rule:nonzero;stroke:none"
             id="path54" /></g><g
           id="g56"
           transform="translate(186.725,281.308)"><path
             d="m 0,0 c -3.181,4.635 -4.769,11.099 -4.769,19.393 v 23.224 c 0,8.294 1.588,13.857 4.769,16.686 3.176,2.832 9.188,2.992 18.04,0.48 L 44.166,52.369 V 160.608 L 27.164,154.65 c -1.387,-0.714 -3.045,-0.795 -4.977,-0.247 -2.489,0.707 -4.562,2.539 -6.221,5.498 l -31.517,57.05 c -1.108,1.695 -1.659,3.373 -1.659,5.032 0,2.76 1.515,4.547 4.562,5.341 l 78.379,25.035 c 3.318,0.99 6.493,1.476 9.539,1.441 3.039,-0.033 7.465,-0.874 13.27,-2.521 l 30.274,-8.591 c 9.123,-2.589 15.552,-6.351 19.284,-11.278 3.732,-4.934 5.599,-11.406 5.599,-19.421 V 24.126 l 4.633,-1.315 c 8.844,-2.51 14.858,-6.082 18.04,-10.717 3.174,-4.634 4.769,-11.099 4.769,-19.394 v -23.223 c 0,-8.294 -1.595,-13.855 -4.769,-16.687 -3.182,-2.83 -9.196,-2.989 -18.04,-0.479 L 18.04,-10.718 C 9.188,-8.206 3.176,-4.634 0,0"
             style="fill:#ffffff;fill-opacity:1;fill-rule:nonzero;stroke:none"
             id="path58" /></g><g
           id="g60"
           transform="translate(873.1614,562.5947)"><path
             d="m 0,0 h -177.081 c -8.573,0 -14.515,-1.659 -17.832,-4.976 -3.318,-3.318 -5.256,-8.573 -5.806,-15.76 l -6.635,-104.506 c -0.829,-12.169 2.696,-21.292 10.575,-27.371 7.879,-6.084 18.175,-9.124 30.895,-9.124 9.124,0 17.69,1.381 25.712,4.147 5.249,1.932 11.82,3.525 19.699,4.77 7.879,1.244 15.551,1.866 23.016,1.866 23.775,0 35.665,-11.061 35.665,-33.177 0,-11.34 -3.875,-19.906 -11.611,-25.711 -7.744,-5.806 -18.391,-8.709 -31.933,-8.709 -26.82,0 -50.322,5.663 -70.5,17.002 -4.977,2.489 -8.158,3.733 -9.539,3.733 -2.766,0 -5.39,-2.074 -7.879,-6.221 l -20.736,-35.665 c -2.488,-4.425 -3.732,-7.879 -3.732,-10.368 0,-3.045 1.658,-5.805 4.976,-8.293 13.271,-9.402 29.995,-16.732 50.18,-21.98 20.179,-5.249 41.47,-7.879 63.865,-7.879 25.984,0 49.279,4.082 69.878,12.233 20.594,8.152 36.767,20.114 48.521,35.873 11.748,15.759 17.625,34.421 17.625,55.985 0,35.108 -10.368,60.062 -31.102,74.855 -20.736,14.787 -50.045,22.187 -87.919,22.187 -5.254,0 -12.234,-0.35 -20.942,-1.037 -8.71,-0.693 -15.28,-1.594 -19.699,-2.695 l 1.243,19.906 H 0 c 8.845,0 14.857,1.866 18.04,5.599 3.175,3.731 4.768,9.745 4.768,18.039 v 23.638 c 0,8.295 -1.593,14.308 -4.768,18.04 C 14.857,-1.867 8.845,0 0,0 m 0,-8.311 c 8.75,0 11.18,-2.051 11.71,-2.672 1.041,-1.224 2.787,-4.496 2.787,-12.656 v -23.638 c 0,-8.16 -1.746,-11.431 -2.781,-12.647 C 11.18,-60.553 8.751,-62.604 0,-62.604 h -121.096 -7.807 l -0.487,-7.793 -1.243,-19.906 -0.707,-11.325 11.011,2.743 c 3.969,0.989 10.142,1.822 18.342,2.474 8.503,0.671 15.329,1.011 20.289,1.011 35.929,0 63.886,-6.945 83.092,-20.641 18.584,-13.259 27.619,-35.532 27.619,-68.09 0,-19.632 -5.376,-36.797 -15.976,-51.016 -10.769,-14.438 -25.882,-25.579 -44.918,-33.114 -19.536,-7.731 -42.018,-11.651 -66.82,-11.651 -21.572,0 -42.355,2.561 -61.774,7.612 -19.051,4.954 -34.987,11.9 -47.365,20.646 -1.186,0.904 -1.506,1.479 -1.568,1.61 0.029,0.298 0.294,2.045 2.634,6.22 l 20.673,35.556 c 0.492,0.816 0.904,1.372 1.216,1.743 0.992,-0.393 2.615,-1.102 5.158,-2.37 21.296,-11.922 46.323,-17.967 74.391,-17.967 15.32,0 27.741,3.489 36.921,10.373 9.909,7.436 14.933,18.323 14.933,32.358 0,26.754 -15.617,41.487 -43.975,41.487 -7.866,0 -16.046,-0.662 -24.313,-1.967 -8.327,-1.316 -15.454,-3.047 -21.186,-5.148 -7.085,-2.433 -14.798,-3.667 -22.928,-3.667 -10.779,0 -19.465,2.487 -25.819,7.394 -7.441,5.74 -7.764,14.292 -7.357,20.263 l 6.631,104.45 c 0.39,5.018 1.563,8.637 3.393,10.467 0.597,0.596 3.22,2.541 11.955,2.541 L 0,-8.311"
             style="fill:#ffffff;fill-opacity:1;fill-rule:nonzero;stroke:none"
             id="path62" /></g><g
           id="g64"
           transform="translate(710.5956,266.5568)"><path
             d="m 0,0 c -20.185,10.992 -36.909,23.08 -50.18,36.259 -3.318,3.432 -4.976,6.664 -4.976,9.709 0,2.489 1.244,5.588 3.732,9.306 l 20.736,29.765 c 2.488,3.439 5.112,4.765 7.879,3.978 1.381,-0.393 4.562,-2.542 9.538,-6.447 C 6.908,65.489 30.41,53.138 57.23,45.506 c 13.542,-3.853 24.189,-3.98 31.933,-0.378 7.735,3.605 11.611,11.068 11.611,22.408 0,22.115 -11.89,36.56 -35.665,43.325 -7.465,2.125 -15.137,3.686 -23.017,4.684 -7.879,0.997 -14.45,1.274 -19.698,0.836 -8.022,-0.484 -16.589,0.573 -25.712,3.169 -12.72,3.62 -23.016,9.589 -30.895,17.916 -7.88,8.32 -11.404,18.447 -10.575,30.38 l 6.634,102.618 c 0.551,7.03 2.489,11.733 5.807,14.107 3.317,2.373 9.259,2.342 17.832,-0.098 l 177.081,-50.39 c 8.845,-2.517 14.857,-6.094 18.04,-10.732 3.174,-4.636 4.768,-11.102 4.768,-19.397 v -23.638 c 0,-8.294 -1.594,-13.854 -4.768,-16.683 -3.183,-2.827 -9.195,-2.982 -18.04,-0.465 L 41.47,197.627 40.227,178.075 c 4.419,-0.157 10.989,-1.125 19.699,-2.911 8.708,-1.79 15.687,-3.427 20.942,-4.922 37.874,-10.777 67.183,-26.517 87.919,-47.205 20.734,-20.693 31.102,-48.597 31.102,-83.705 0,-21.565 -5.877,-38.554 -17.625,-50.97 -11.754,-12.414 -27.928,-19.774 -48.521,-22.065 -20.6,-2.29 -43.895,0.256 -69.879,7.65 C 41.47,-19.68 20.179,-10.991 0,0"
             style="fill:#ffffff;fill-opacity:1;fill-rule:nonzero;stroke:none"
             id="path66" /></g><g
           id="g68"
           transform="translate(501.0143,568.8154)"><path
             d="m 0,0 c -49.493,0 -86.539,-12.513 -111.142,-37.531 -24.611,-25.025 -36.909,-61.584 -36.909,-109.691 0,-48.106 12.298,-84.672 36.909,-109.69 24.603,-25.025 61.649,-37.531 111.142,-37.531 49.486,0 86.532,12.506 111.142,37.531 24.604,25.018 36.909,61.584 36.909,109.69 0,48.107 -12.305,84.666 -36.909,109.691 C 86.532,-12.513 49.486,0 0,0 m 0,-8.311 c 46.94,0 82.341,-11.792 105.216,-35.047 22.908,-23.3 34.524,-58.245 34.524,-103.864 0,-45.624 -11.615,-80.569 -34.524,-103.863 -22.87,-23.256 -58.27,-35.048 -105.216,-35.048 -46.952,0 -82.352,11.792 -105.217,35.049 -22.908,23.287 -34.523,58.231 -34.523,103.862 0,45.625 11.615,80.57 34.524,103.864 C -82.347,-20.102 -46.947,-8.311 0,-8.311"
             style="fill:#ffffff;fill-opacity:1;fill-rule:nonzero;stroke:none"
             id="path70" /></g><g
           id="g72"
           transform="translate(519.4158,304.2037)"><path
             d="m 0,0 c 0.546,-5.803 -3.893,-9.419 -9.567,-7.792 l -32.201,9.236 c -5.674,1.628 -10.113,7.789 -9.567,13.28 l 9.728,97.897 c -7.353,7.181 -12.176,17.042 -12.176,26.649 0,15.528 12.588,24.505 28.115,20.052 15.528,-4.454 28.115,-20.652 28.115,-36.179 0,-9.608 -4.822,-16.703 -12.175,-19.665 z m 92.74,164.115 c -24.61,30.998 -61.656,52.51 -111.141,64.531 -49.493,12.023 -86.539,8.51 -111.142,-10.532 -24.611,-19.046 -36.909,-52.618 -36.909,-100.724 0,-48.106 12.298,-87.659 36.909,-118.656 24.603,-31.002 61.649,-52.508 111.142,-64.531 49.485,-12.021 86.531,-8.514 111.141,10.532 24.604,19.041 36.909,52.618 36.909,100.724 0,48.106 -12.305,87.655 -36.909,118.656"
             style="fill:#ffffff;fill-opacity:1;fill-rule:nonzero;stroke:none"
             id="path74" /></g></g></g></g></svg>
